HIERARCHY
ROOT root
{
	OFFSET	0	13.1	24.9
	CHANNELS 6  Xposition Yposition Zposition Xrotation Yrotation Zrotation
	JOINT spine_1
	{
		OFFSET	0	9.99999	0
		CHANNELS 3  Xrotation Yrotation Zrotation
		JOINT spine_2
		{
			OFFSET	0	112	-10
			CHANNELS 3  Xrotation Yrotation Zrotation
			JOINT spine_3
			{
				OFFSET	0	206.5	19.3
				CHANNELS 3  Xrotation Yrotation Zrotation
				JOINT spine_4
				{
					OFFSET	0	110.4	14.6
					CHANNELS 3  Xrotation Yrotation Zrotation
					JOINT neck_1
					{
						OFFSET	0	71.8	-50.3
						CHANNELS 3  Xrotation Yrotation Zrotation
						JOINT neck_2
						{
							OFFSET	0	86.2	-25.8
							CHANNELS 3  Xrotation Yrotation Zrotation
							JOINT head_ee
							{
								OFFSET	0	179.8	-8.7
								CHANNELS 3  Xrotation Yrotation Zrotation
								End Site
								{
									OFFSET	1	0	0
								}
							}
						}
					}
					JOINT left_clavicle
					{
						OFFSET	-43.2	22.4	-70.8
						CHANNELS 3  Xrotation Yrotation Zrotation
						JOINT left_shoulder
						{
							OFFSET	-93.9	-5.79999	48.7
							CHANNELS 3  Xrotation Yrotation Zrotation
							JOINT left_elbow
							{
								OFFSET	-291.4	-30.8	15.2
								CHANNELS 3  Xrotation Yrotation Zrotation
								JOINT left_lowarm_twist
								{
									OFFSET	-110.7	-3.89999	13.6
									CHANNELS 3  Xrotation Yrotation Zrotation
									JOINT left_hand
									{
										OFFSET	-110.7	-3.89999	13.6
										CHANNELS 3  Xrotation Yrotation Zrotation
										JOINT left_ee
										{
											OFFSET	-80.8	-5.10001	12.1
											CHANNELS 3  Xrotation Yrotation Zrotation
											End Site
											{
												OFFSET	1	0	0
											}
										}
									}
								}
							}
						}
					}
					JOINT right_clavicle
					{
						OFFSET	43.2	22.4	-70.8
						CHANNELS 3  Xrotation Yrotation Zrotation
						JOINT right_shoulder
						{
							OFFSET	93.9	-5.79999	48.7
							CHANNELS 3  Xrotation Yrotation Zrotation
							JOINT right_elbow
							{
								OFFSET	291.4	-30.8	15.2
								CHANNELS 3  Xrotation Yrotation Zrotation
								JOINT right_lowarm_twist
								{
									OFFSET	110.7	-3.89999	13.6
									CHANNELS 3  Xrotation Yrotation Zrotation
									JOINT right_hand
									{
										OFFSET	110.7	-3.89999	13.6
										CHANNELS 3  Xrotation Yrotation Zrotation
										JOINT right_ee
										{
											OFFSET	80.8	-5.10001	12.1
											CHANNELS 3  Xrotation Yrotation Zrotation
											End Site
											{
												OFFSET	1	0	0
											}
										}
									}
								}
							}
						}
					}
				}
			}
		}
	}
	JOINT left_hip
	{
		OFFSET	-82.8	-127.5	0.300001
		CHANNELS 3  Xrotation Yrotation Zrotation
		JOINT left_knee
		{
			OFFSET	-28.2	-396.7	2.2
			CHANNELS 3  Xrotation Yrotation Zrotation
			JOINT left_ankle
			{
				OFFSET	-11.7	-411.3	35.4
				CHANNELS 3  Xrotation Yrotation Zrotation
				JOINT left_toes
				{
					OFFSET	0	-60	-88.6
					CHANNELS 3  Xrotation Yrotation Zrotation
					JOINT left_foot_ee
					{
						OFFSET	-22.5	-16.5	-42.2
						CHANNELS 3  Xrotation Yrotation Zrotation
						End Site
						{
							OFFSET	1	0	0
						}
					}
				}
			}
		}
	}
	JOINT right_hip
	{
		OFFSET	82.8	-127.5	0.300001
		CHANNELS 3  Xrotation Yrotation Zrotation
		JOINT right_knee
		{
			OFFSET	28.2	-396.7	2.2
			CHANNELS 3  Xrotation Yrotation Zrotation
			JOINT right_ankle
			{
				OFFSET	11.7	-411.3	35.4
				CHANNELS 3  Xrotation Yrotation Zrotation
				JOINT right_toes
				{
					OFFSET	0	-60	-88.6
					CHANNELS 3  Xrotation Yrotation Zrotation
					JOINT right_foot_ee
					{
						OFFSET	22.5	-16.5	-42.2
						CHANNELS 3  Xrotation Yrotation Zrotation
						End Site
						{
							OFFSET	1	0	0
						}
					}
				}
			}
		}
	}
}
MOTION
Frames: 16
Frame Time: 0.02
3177.02 653.055 -1669.29 -13.9794120137 55.2942776687 5.46406214664 3.27865 1.24671 5.67616 3.29613 0.883606 5.74368 3.37812 0.000647934 5.81102 3.3322 0.916849 5.73848 -12.7627 16.9268 -3.64484 -13.584 34.4525 1.88488 -0.0 0.0 -0.0 -7.98838 23.7875 -8.26888 -28.2217 -8.48499 72.7447 0.863034 -23.1475 0.176747 -2.92155 -0.112056 0.356179 -0.20418 16.3194 5.39786 -0.0 0.0 -0.0 13.5983 26.9334 -26.9486 14.204 29.9315 -76.3824 1.95125 44.022 -0.788854 13.1709 -0.274749 1.65634 2.58152 22.5356 -7.39183 0.0 0.0 0.0 33.1341 34.2876 -11.5366 3.09584 -0.139811 -0.454395 8.46604 -28.0705 -1.49574 -21.7142 0.0 0.0 -0.0 0.0 -0.0 -17.3424 22.003 12.5956 -9.64914 -0.275436 -1.45348 30.6844 -12.3264 3.98443 1.08824 -0.0 -0.0 0.0 0.0 0.0 
3157.25178122 658.738 -1664.99115989 -13.6086019264 54.4820637218 4.90760995804 3.17942 1.2678 5.82779 3.19786 0.895053 5.89632 3.28354 -0.0210915 5.96359 3.23512 0.919351 5.89259 -13.7616 17.1969 -2.66582 -14.7565 34.405 3.2673 -0.0 0.0 -0.0 -7.58596 24.0459 -7.60747 -26.5674 -8.37894 72.0947 0.845935 -22.736 0.170082 -4.62291 -0.185644 0.560853 -0.799754 16.0398 1.62025 -0.0 0.0 -0.0 13.5952 26.947 -26.9398 12.7733 31.1831 -76.7649 1.89996 43.26 -0.753456 13.5514 -0.27699 1.70489 2.4208 21.6789 -6.74831 0.0 0.0 0.0 33.3698 34.3462 -12.0281 0.709288 -0.0298564 -0.104749 9.83374 -29.5772 -1.76157 -22.1264 0.0 0.0 -0.0 0.0 -0.0 -17.638 22.2488 13.6177 -11.8164 -0.303386 -1.78482 28.1335 -14.6368 3.72407 2.28089 -0.0 -0.0 0.0 0.0 0.0 
3157.24872629 658.738 -1665.00523212 -13.5951742469 54.4424240566 4.89110861916 3.17942 1.2678 5.82779 3.19786 0.895053 5.89632 3.28354 -0.0210915 5.96359 3.23512 0.919351 5.89259 -13.7616 17.1969 -2.66582 -14.7565 34.405 3.2673 -0.0 0.0 -0.0 -7.58596 24.0459 -7.60747 -26.5674 -8.37894 72.0947 0.845935 -22.736 0.170082 -4.62291 -0.185644 0.560853 -0.799754 16.0398 1.62025 -0.0 0.0 -0.0 13.5952 26.947 -26.9398 12.7733 31.1831 -76.7649 1.89996 43.26 -0.753456 13.5514 -0.27699 1.70489 2.4208 21.6789 -6.74831 0.0 0.0 0.0 33.3698 34.3462 -12.0281 0.709288 -0.0298564 -0.104749 9.83374 -29.5772 -1.76157 -22.1264 0.0 0.0 -0.0 0.0 -0.0 -17.638 22.2488 13.6177 -11.8164 -0.303386 -1.78482 28.1335 -14.6368 3.72407 2.28089 -0.0 -0.0 0.0 0.0 0.0 
3134.65751088 665.203 -1664.78515643 -12.3862229572 52.9208043804 3.85635066169 2.90249 1.44961 5.94378 2.9215 1.06916 6.02358 3.02891 0.105076 6.11648 2.97833 1.06797 6.02379 -12.5167 18.1447 -1.6161 -13.3989 35.4985 4.15616 -0.0 0.0 -0.0 -7.30598 24.3579 -7.10871 -23.9101 -8.62865 71.3298 0.742787 -20.2013 0.132321 -4.23384 -0.16828 0.514239 -0.959525 18.1515 1.55377 -0.0 0.0 -0.0 13.7511 26.3022 -27.384 11.9095 31.884 -77.105 1.76904 41.2254 -0.665431 11.6005 -0.262094 1.45616 2.48963 21.1369 -7.46592 0.0 0.0 0.0 30.2581 34.5555 -11.0812 1.72018 -0.0746481 -0.253396 15.2882 -29.1007 -2.65221 -25.1638 0.0 0.0 -0.0 0.0 -0.0 -17.9638 22.4226 14.4922 -12.0674 -0.305813 -1.82326 19.7114 -20.6896 2.77166 1.31992 -0.0 -0.0 0.0 0.0 0.0 
3093.05372415 675.804 -1654.40106047 -10.4685914203 52.8179526906 2.05172456713 2.50111 1.47499 6.0452 2.52077 1.08807 6.12638 2.63431 0.0646056 6.22156 2.58186 1.0445 6.13393 -12.3873 18.6959 -2.74388 -13.339 37.2376 3.25405 -0.0 0.0 -0.0 -6.39138 23.9406 -5.96594 -19.9887 -8.99588 68.8108 0.663939 -18.2059 0.106382 -5.23084 -0.213411 0.633453 -1.09811 18.6769 0.948012 -0.0 0.0 -0.0 13.5109 26.8362 -26.7582 10.145 31.4058 -76.7616 1.39777 34.6974 -0.436682 11.6732 -0.262801 1.46542 2.46894 19.109 -8.30255 0.0 0.0 0.0 25.642 35.7015 -7.46296 -3.18325 0.117914 0.474236 27.044 -29.8506 -4.41608 -25.2871 0.0 0.0 -0.0 0.0 -0.0 -17.9246 24.9644 16.671 -17.7155 -0.315836 -2.68945 15.1436 -24.0433 2.20214 1.39841 -0.0 -0.0 0.0 0.0 0.0 
3068.43158485 679.427 -1649.87609274 -9.67437350225 51.0470006265 0.958056755772 2.5376 1.46377 6.10105 2.55765 1.07334 6.18141 2.67034 0.0448761 6.27339 2.61695 1.03315 6.18822 -12.4292 18.3312 -4.49579 -13.3692 37.6346 1.47928 -0.0 0.0 -0.0 -5.25865 24.0007 -4.37813 -18.1023 -9.3417 66.2621 0.566795 -15.6835 0.0780628 -5.49689 -0.225805 0.665133 -1.20377 19.3165 0.597188 -0.0 0.0 -0.0 14.0251 27.0227 -27.9313 10.0141 31.3822 -77.1709 1.06512 27.8167 -0.263763 11.8749 -0.264701 1.49111 2.12082 16.9411 -6.98461 0.0 0.0 0.0 23.8134 36.1422 -6.66379 -4.53964 0.16011 0.678119 30.0316 -30.7187 -4.85525 -23.6331 0.0 0.0 -0.0 0.0 -0.0 -17.7042 26.2268 18.2483 -21.6606 -0.272211 -3.29308 13.8453 -26.9883 2.05651 2.2055 -0.0 -0.0 0.0 0.0 0.0 
3047.47715424 685.66 -1647.18584855 -8.04793945352 48.4981233388 -0.514896557385 2.29449 1.74575 6.12066 2.3143 1.35351 6.21882 2.4599 0.293399 6.3571 2.40587 1.29174 6.23189 -12.8214 17.8873 -4.47367 -13.779 36.7888 1.48739 -0.0 0.0 -0.0 -4.81672 24.0275 -3.76315 -16.5828 -9.49496 65.0183 0.577455 -15.9636 0.0809693 -5.47275 -0.224674 0.66226 -1.16751 19.3389 0.823559 -0.0 0.0 -0.0 13.865 27.0949 -27.5481 8.21437 30.5028 -76.699 0.989159 26.1044 -0.22932 12.4837 -0.269887 1.5687 1.80872 13.9448 -6.24166 0.0 0.0 0.0 21.5181 36.6659 -5.78218 -7.39478 0.233085 1.11016 31.8068 -31.033 -5.09541 -22.5229 0.0 0.0 -0.0 0.0 -0.0 -16.7591 27.7636 19.6477 -25.3358 -0.194279 -3.85157 15.1924 -27.5834 2.25432 2.6224 -0.0 -0.0 0.0 0.0 0.0 
3047.31411695 685.66 -1648.16356393 -7.98035258361 48.0701820508 -0.605439816537 2.29449 1.74575 6.12066 2.3143 1.35351 6.21882 2.4599 0.293399 6.3571 2.40587 1.29174 6.23189 -12.8214 17.8873 -4.47367 -13.779 36.7888 1.48739 -0.0 0.0 -0.0 -4.81672 24.0275 -3.76315 -16.5828 -9.49496 65.0183 0.577455 -15.9636 0.0809693 -5.47275 -0.224674 0.66226 -1.16751 19.3389 0.823559 -0.0 0.0 -0.0 13.865 27.0949 -27.5481 8.21437 30.5028 -76.699 0.989159 26.1044 -0.22932 12.4837 -0.269887 1.5687 1.80872 13.9448 -6.24166 0.0 0.0 0.0 21.5181 36.6659 -5.78218 -7.39478 0.233085 1.11016 31.8068 -31.033 -5.09541 -22.5229 0.0 0.0 -0.0 0.0 -0.0 -16.7591 27.7636 19.6477 -25.3358 -0.194279 -3.85157 15.1924 -27.5834 2.25432 2.6224 -0.0 -0.0 0.0 0.0 0.0 
3029.69210599 687.695 -1652.91737201 -6.76144327908 46.899081267 -2.01849576058 2.31603 1.69178 6.25818 2.33688 1.29095 6.35262 2.47836 0.211003 6.47852 2.42194 1.22942 6.36477 -12.9622 17.9552 -4.09821 -13.95 36.6908 1.92335 -0.0 0.0 -0.0 -4.38086 23.8448 -3.20965 -15.1219 -9.69568 62.89 0.593008 -16.3708 0.0853001 -5.81455 -0.240796 0.702883 -1.20039 18.9669 0.462453 -0.0 0.0 -0.0 13.7692 26.9558 -27.3432 6.53227 29.8413 -76.9763 0.944521 25.0739 -0.210039 13.0137 -0.27373 1.63629 1.71622 13.848 -5.66015 0.0 0.0 0.0 18.1564 37.3497 -4.25293 -5.94741 0.198784 0.890697 33.157 -31.2328 -5.27047 -22.0439 0.0 0.0 -0.0 0.0 -0.0 -13.3166 28.4284 18.9289 -31.8169 0.0298015 -4.82046 16.3587 -27.9798 2.42334 3.3749 -0.0 -0.0 0.0 0.0 0.0 
3006.13975546 690.89 -1656.20319264 -4.82432328392 45.42191201 -4.03146890142 2.11789 1.61662 6.41565 2.13997 1.20599 6.50499 2.27629 0.0777327 6.61491 2.21703 1.11921 6.52042 -13.099 17.947 -3.90441 -14.1079 36.5606 2.15617 -0.0 0.0 -0.0 -3.7179 23.7426 -2.32292 -14.1397 -9.78248 60.9786 0.619592 -17.0628 0.0929469 -6.23842 -0.261126 0.753127 -1.22424 18.46 0.094093 -0.0 0.0 -0.0 13.8223 27.1316 -27.444 4.24819 29.2577 -77.7493 0.904969 24.1462 -0.193568 13.6976 -0.277765 1.72355 1.69223 13.9585 -5.44902 0.0 0.0 0.0 12.9868 38.5854 -1.6063 -3.15988 0.117145 0.470732 31.2807 -30.3733 -4.9885 -22.724 0.0 0.0 -0.0 0.0 -0.0 -10.6611 28.8777 18.1682 -41.1639 0.542467 -6.16043 17.2139 -28.1797 2.54529 4.13186 -0.0 -0.0 0.0 0.0 0.0 
2961.0661363 691.074 -1669.51836914 -2.11971549487 42.4515715439 -6.61654159487 1.61715 1.32137 6.48264 1.64005 0.907098 6.55317 1.74606 -0.288466 6.60911 1.68597 0.756637 6.57216 -12.543 17.8245 -3.31675 -13.4278 35.9459 2.44762 -0.0 0.0 -0.0 -3.39062 23.7768 -1.86709 -9.42035 -10.4486 58.1894 0.699675 -19.1163 0.117817 -6.45841 -0.271824 0.779145 -1.20131 17.2673 -0.298331 -0.0 0.0 -0.0 13.6957 26.0399 -27.287 1.04973 27.7693 -78.7239 0.799373 21.6028 -0.152511 13.0891 -0.274226 1.6459 1.54008 13.868 -4.46316 0.0 0.0 0.0 6.6293 41.3533 0.623596 -4.81204 0.168001 0.719179 33.0216 -30.8937 -5.23145 -22.2711 0.0 0.0 -0.0 0.0 -0.0 -5.15023 29.6678 15.7513 -55.0114 1.68607 -7.95339 23.428 -27.6251 3.36519 7.52362 -0.0 -0.0 0.0 0.0 0.0 
2933.24576304 695.541 -1674.03424837 -1.29379906112 42.5918612865 -6.9575604984 1.66205 1.18864 6.31971 1.68391 0.784937 6.38219 1.77307 -0.375443 6.41916 1.71619 0.64093 6.39819 -13.2975 18.1347 -3.49581 -14.3611 36.6748 2.69186 -0.0 0.0 -0.0 -3.61964 23.3758 -2.2678 -8.28417 -10.8609 57.2582 0.833081 -22.425 0.165146 -6.91395 -0.294294 0.832891 -1.13124 16.8431 -0.0599015 -0.0 0.0 -0.0 13.3959 25.2423 -26.6828 -2.3933 26.7242 -78.5881 0.725801 19.7756 -0.126515 13.0604 -0.274038 1.64224 1.51768 15.5636 -3.55932 0.0 0.0 0.0 2.80674 41.2391 2.32536 -4.59523 0.161736 0.686496 32.9103 -30.5302 -5.19411 -22.2583 0.0 0.0 -0.0 0.0 -0.0 -1.73102 31.6585 11.5963 -59.9291 2.19233 -8.51763 24.9446 -27.9066 3.56548 8.3512 -0.0 -0.0 0.0 0.0 0.0 
2933.23461428 695.541 -1665.15814726 -1.33950253251 44.6772381164 -6.89133993892 1.66205 1.18864 6.31971 1.68391 0.784937 6.38219 1.77307 -0.375443 6.41916 1.71619 0.64093 6.39819 -13.2975 18.1347 -3.49581 -14.3611 36.6748 2.69186 -0.0 0.0 -0.0 -3.61964 23.3758 -2.2678 -8.28417 -10.8609 57.2582 0.833081 -22.425 0.165146 -6.91395 -0.294294 0.832891 -1.13124 16.8431 -0.0599015 -0.0 0.0 -0.0 13.3959 25.2423 -26.6828 -2.3933 26.7242 -78.5881 0.725801 19.7756 -0.126515 13.0604 -0.274038 1.64224 1.51768 15.5636 -3.55932 0.0 0.0 0.0 2.80674 41.2391 2.32536 -4.59523 0.161736 0.686496 32.9103 -30.5302 -5.19411 -22.2583 0.0 0.0 -0.0 0.0 -0.0 -1.73102 31.6585 11.5963 -59.9291 2.19233 -8.51763 24.9446 -27.9066 3.56548 8.3512 -0.0 -0.0 0.0 0.0 0.0 
2917.16999622 695.647 -1656.03817621 -0.86757357691 45.0240212653 -7.16687039451 1.77188 1.13577 6.10964 1.79232 0.745454 6.16922 1.87356 -0.365149 6.20322 1.82044 0.617198 6.18331 -12.4282 17.7226 -3.95969 -13.2889 36.1471 1.75796 -0.0 0.0 -0.0 -3.51459 23.1866 -2.16308 -6.30105 -11.381 56.6646 0.876949 -23.4806 0.182254 -7.29961 -0.313652 0.878254 -1.23108 17.3489 -0.442841 -0.0 0.0 -0.0 13.5734 26.3499 -26.9642 -4.89177 25.5387 -76.9232 0.644698 17.7117 -0.100449 13.0179 -0.273758 1.63683 1.7712 16.2794 -4.93925 0.0 0.0 0.0 1.47954 41.666 3.25006 -5.64083 0.190807 0.844325 32.7936 -30.1912 -5.1582 -22.3497 0.0 0.0 -0.0 0.0 -0.0 0.201303 31.7393 11.434 -61.539 2.36844 -8.69277 24.6509 -25.3261 3.47133 8.34186 -0.0 -0.0 0.0 0.0 0.0 
2868.85355284 697.42 -1649.38122698 -0.247108996088 44.8543188375 -7.04126683236 1.82546 0.916813 5.44048 1.84173 0.569297 5.4876 1.89669 -0.415314 5.50136 1.85478 0.457386 5.49803 -13.5204 17.4774 -3.98806 -14.5415 35.729 2.0537 -0.0 0.0 -0.0 -3.10543 22.0957 -1.81545 0.220974 -13.13 54.4981 1.23886 -31.536 0.349827 -8.97152 -0.401095 1.07338 -1.47841 17.9589 -1.66528 -0.0 0.0 -0.0 13.8325 24.2671 -27.8112 -11.7246 20.5665 -72.4391 0.417191 11.6768 -0.0426594 12.7762 -0.272085 1.606 1.81142 17.5332 -4.63944 0.0 0.0 0.0 -4.10739 42.6093 7.11778 -2.07576 0.0798853 0.308525 31.5842 -26.9757 -4.82546 -22.7005 0.0 0.0 -0.0 0.0 -0.0 8.48586 30.0603 6.61472 -60.8832 2.29611 -8.62202 24.4195 -18.9987 3.33929 9.15632 -0.0 -0.0 0.0 0.0 0.0 
2858.94430732 700.895 -1642.87560574 -1.34296834873 45.1495347566 -5.57424727902 1.804 0.777281 5.21018 1.81898 0.444636 5.24894 1.86008 -0.499307 5.24403 1.82188 0.333978 5.25711 -12.2808 17.0047 -4.12149 -13.0375 34.8812 1.28683 -0.0 0.0 -0.0 -3.22575 23.1452 -1.77115 1.81317 -13.7011 53.977 1.62494 -38.8293 0.572734 -8.5385 -0.377901 1.02309 -1.43204 17.3512 -1.66274 -0.0 0.0 -0.0 13.7133 24.8962 -27.4623 -12.6109 19.8839 -71.684 0.339546 9.54803 -0.0283575 13.1244 -0.274454 1.65041 2.13991 19.1779 -6.07273 0.0 0.0 0.0 -5.09681 42.9286 8.48811 1.6597 -0.0718949 -0.244525 28.0374 -26.5571 -4.37185 -24.1916 0.0 0.0 -0.0 0.0 -0.0 12.9344 32.7175 3.15098 -60.8426 2.29165 -8.61762 26.252 -16.1232 3.52347 8.47135 -0.0 -0.0 0.0 0.0 0.0 
